<svg xmlns="http://www.w3.org/2000/svg" width="259.7" height="49.4" viewBox="0 0 259.7 49.4"><path fill="#F5EA0E" d="M13.9 42.6h8v-10H8.1l5.8 10zm-8.1-14h16.1v-10H0l5.8 10zm219.1 5v9h21l5.8-10h-18.4c-3.4.8-6.6 1-8.4 1zm21-15c-.5 4.6-2.3 7.8-4.7 10H254l5.8-10h-13.9z"/><path fill="#A3CD3A" d="M59.4 27.1V10.4h-.1l-.5 3.8-7 34.4h-8.3l-7-34.4-.5-3.8h-.1v16.7l-9.5-6.2V0h14.8l6.4 36.4L54.1 0h14.8v20.8l-9.5 6.3zM35.9 48.6h-9.5V23.8l9.5 6.2v18.6z"/><path fill="#7AB943" d="M68.9 48.6h-9.5V30l9.5-6.2v24.8z"/><path fill="#009D58" d="M91.8 22.6c0-6.1-2.6-9.6-5.9-11.1.5-.1 1.5-.1 2.3-.1 8.6 0 13.8 3 13.7 12.9l-.1 12.5c0 4.6-.1 8.4.5 11.7h-9.2l-.3-4.7c-1.6 3.8-4.7 5.5-9.1 5.5-5.8 0-9.7-3.6-9.7-10.1v-.7c0-5.9 4.2-8.3 12.5-11.5l3.1-1.2.1 5.4-.9.3c-3.6 1.4-4.7 2.9-4.7 5.8v.9c0 2.7.8 4.8 3.4 4.8 3.1 0 4.4-2.4 4.4-8.6l-.1-11.8z"/><path fill="#7AB943" d="M87.8 17.7c-3.1 0-4.1 2-4.1 5.7v.6h-9.1v-.6c0-5.2 3-9.4 8.3-11.2 2.8.9 5.1 3.1 5.6 5.5h-.7z"/><path fill="#A3CD3A" d="M128.5 29l9 19.6h-9.8l-5.2-11.3 6-8.3z"/><path fill="#7AB943" d="M117.8 39.7v8.8h-10.3V0h10.3v26.7l10-14.2h9.4l-19.4 27.2z"/><path fill="#A3CD3A" d="M153.2 17.8c-3.6 0-4.8 2.2-4.8 7.5v.6h9.5V25c0-6.5-2.3-11.5-6.4-13.6.5-.1.9-.1 1.4-.1 10.9 0 14.4 5.8 14.4 18.1v1.9h-19v4c0 7.9 2.5 11.9 6.3 13.9-.5.1-1.2.1-2 .1-10 0-14.5-5.8-14.5-16.1v-6c0-8.8 3.5-14 10-15.4 2.5.8 5.2 3.1 6 5.9h-.9zm13.7 18.9v-.3h-9.6v.3c0 4.8-1.7 6.1-4.4 6.1h-.9c.5 2.9 3.4 5.3 5.6 6.1 4.6-1.1 9.3-4.3 9.3-12.2z"/><path fill="#009D58" d="M172.2 29.4V0h10.7v29.4c0 8.6-.3 12.6 5.4 12.6h.7c-.8 3.3-3.6 5.6-6.8 7-8.3-1.3-10-6.5-10-19.6z"/><path fill="#7AB943" d="M193.1 31.2V0h10.7v28.9c0 16-2.3 20.5-15.8 20.5-.8 0-1.5 0-2.2-.1 3.8-1.9 7.4-6.2 7.3-18.1z"/><path fill="#009D58" d="M219.4 0h4.8c10.5 0 17.5 2.1 17.5 14.5s-7 14.9-17.5 14.9H221v19.2h-10.7V0h6.1l4.6 7.1v15.1h1.8c6 0 7.5-1 7.5-7.5s-1.7-7.4-6.4-7.6L219.4 0z"/></svg>